<?xml version="1.0" encoding="utf-8"?>
<!-- Generator: Adobe Illustrator 26.2.1, SVG Export Plug-In . SVG Version: 6.00 Build 0)  -->
<svg version="1.1" id="a" xmlns="http://www.w3.org/2000/svg" xmlns:xlink="http://www.w3.org/1999/xlink" x="0px" y="0px"
	 viewBox="0 0 1500 200" style="enable-background:new 0 0 1500 200;" xml:space="preserve">
<style type="text/css">
	.st0{fill:#000B16;}
	.st1{fill:none;}
	.st2{fill:#167FA6;}
</style>
<g>
	<path class="st0" d="M134.9,48.5L90,151.5H71.1l-45-103.1h20.8L81.1,128l34.6-79.5H134.9z"/>
	<path class="st0" d="M164.5,146.1c-8.4-4.6-15.1-10.9-19.9-19c-4.8-8.1-7.2-17.2-7.2-27.2s2.4-19.1,7.2-27.2
		c4.8-8.1,11.4-14.4,19.9-19c8.4-4.6,17.9-6.8,28.4-6.8s20,2.3,28.4,6.8c8.4,4.6,15.1,10.9,19.9,18.9c4.8,8.1,7.2,17.1,7.2,27.2
		s-2.4,19.2-7.2,27.2c-4.8,8-11.4,14.3-19.9,18.9c-8.4,4.6-17.9,6.9-28.4,6.9S172.9,150.7,164.5,146.1L164.5,146.1z M211.4,131.6
		c5.5-3.1,9.8-7.4,13-13c3.1-5.5,4.7-11.8,4.7-18.6s-1.6-13.1-4.7-18.6s-7.5-9.9-13-13c-5.5-3.1-11.7-4.6-18.6-4.6
		s-13.1,1.6-18.6,4.6s-9.8,7.4-13,13c-3.1,5.6-4.7,11.8-4.7,18.6s1.6,13.1,4.7,18.6c3.1,5.6,7.5,9.9,13,13
		c5.5,3.1,11.7,4.6,18.6,4.6S205.9,134.7,211.4,131.6z"/>
	<path class="st0" d="M288.2,146.1c-8.4-4.6-15-10.9-19.7-18.9s-7.1-17.1-7.1-27.2s2.4-19.2,7.2-27.2s11.4-14.3,19.8-18.9
		s17.8-6.8,28.2-6.8c8.4,0,16.1,1.5,23.1,4.4c7,2.9,12.9,7.2,17.7,12.8l-12.4,11.6c-7.5-8.1-16.6-12.1-27.5-12.1
		c-7.1,0-13.4,1.6-19,4.6s-10,7.4-13.1,12.9c-3.1,5.5-4.7,11.7-4.7,18.7s1.6,13.2,4.7,18.7c3.1,5.5,7.5,9.8,13.1,12.9
		c5.6,3.1,11.9,4.6,19,4.6c10.9,0,20.1-4.1,27.5-12.2l12.4,11.8c-4.8,5.6-10.7,9.9-17.7,12.8s-14.8,4.4-23.2,4.4
		C306,153,296.6,150.7,288.2,146.1L288.2,146.1z"/>
	<path class="st0" d="M440.4,127.7h-51.5l-10.2,23.8h-19.7l46.4-103.1h18.9l46.5,103.1h-20L440.4,127.7L440.4,127.7z M434,112.7
		l-19.4-45.1l-19.3,45.1H434z"/>
	<path class="st0" d="M570.3,107.3c3.3,4.4,5,9.8,5,16.3c0,8.9-3.4,15.8-10.3,20.7c-6.9,4.9-16.9,7.3-30,7.3h-51.2V48.5h48.3
		c12.2,0,21.5,2.4,28.1,7.1c6.6,4.8,9.9,11.3,9.9,19.7c0,5.1-1.2,9.6-3.5,13.5c-2.4,3.9-5.6,7-9.7,9.1
		C562.5,99.8,567,102.9,570.3,107.3L570.3,107.3z M502.9,63.5v28.4H530c6.7,0,11.8-1.2,15.4-3.6c3.6-2.4,5.4-5.9,5.4-10.5
		s-1.8-8.3-5.4-10.7s-8.7-3.6-15.4-3.6L502.9,63.5L502.9,63.5z M556.1,121.6c0-9.9-7.4-14.9-22.2-14.9h-30.9v29.7h30.9
		C548.7,136.5,556.1,131.5,556.1,121.6z"/>
	<path class="st0" d="M604.7,149.6c-7.4-2.3-13.3-5.2-17.6-9l6.6-14.9c4.2,3.3,9.4,6.1,15.5,8.2s12.3,3.2,18.5,3.2
		c7.7,0,13.4-1.2,17.2-3.7s5.7-5.7,5.7-9.7c0-2.9-1.1-5.4-3.2-7.3c-2.1-1.9-4.8-3.4-8-4.5c-3.2-1.1-7.7-2.3-13.2-3.7
		c-7.8-1.9-14.2-3.7-19.1-5.6s-9-4.8-12.5-8.8s-5.2-9.3-5.2-16.1c0-5.7,1.5-10.9,4.6-15.5s7.8-8.4,14-11.1
		c6.2-2.8,13.9-4.1,22.9-4.1c6.3,0,12.5,0.8,18.5,2.4c6.1,1.6,11.3,3.8,15.8,6.8l-6,14.9c-4.5-2.7-9.2-4.7-14.1-6
		c-4.9-1.4-9.7-2.1-14.3-2.1c-7.6,0-13.2,1.3-16.9,3.8c-3.7,2.6-5.5,5.9-5.5,10.2c0,2.9,1,5.3,3.2,7.2c2.1,1.9,4.8,3.3,8,4.4
		s7.7,2.3,13.2,3.7c7.7,1.8,13.9,3.6,18.8,5.5c4.9,1.9,9.1,4.8,12.6,8.8c3.5,3.9,5.2,9.2,5.2,15.9c0,5.7-1.5,10.8-4.6,15.5
		s-7.8,8.3-14.1,11c-6.3,2.8-13.9,4.1-23,4.1C619.8,153,612.1,151.9,604.7,149.6L604.7,149.6z"/>
</g>
<g>
	<path class="st1" d="M808.9,47c-29.5,0-53.4,22.5-53.4,53s23.9,53,53.4,53s53.4-22.5,53.4-53S838.4,47,808.9,47z M829.1,115.2
		c0,2.8-2.2,5-5,5h-30.3c-2.8,0-5-2.2-5-5V84.8c0-2.8,2.2-5,5-5h30.4c2.8,0,5,2.2,5,5v30.4H829.1L829.1,115.2z"/>
	<path class="st1" d="M1418.7,66.2c-18.1,0-32.8,15.2-32.8,33.9s14.7,33.9,32.8,33.9l0,0c18.1,0,32.8-15.2,32.8-33.9
		S1436.8,66.2,1418.7,66.2z"/>
	<path class="st1" d="M1086.5,66.2c-18.1,0-32.8,15.2-32.8,33.9s14.7,33.9,32.8,33.9l0,0c18.1,0,32.8-15.2,32.8-33.9
		C1119.2,81.4,1104.5,66.2,1086.5,66.2z"/>
	<path class="st2" d="M808.9,8c-52.5,0-95,41.2-95,92s42.5,92,95,92s95-41.2,95-92S861.4,8,808.9,8z M808.9,153
		c-29.5,0-53.4-22.5-53.4-53s23.9-53,53.4-53s53.4,22.5,53.4,53S838.4,153,808.9,153z"/>
	<path class="st0" d="M1086.5,47c-30.5,0-55.2,23.7-55.2,53s24.7,53,55.2,53s55.2-23.7,55.2-53C1141.6,70.7,1116.9,47,1086.5,47z
		 M1086.5,134L1086.5,134c-18.1,0-32.8-15.1-32.8-33.9s14.7-33.9,32.8-33.9s32.8,15.2,32.8,33.9C1119.2,118.8,1104.5,134,1086.5,134
		z"/>
	<path class="st0" d="M1418.7,47c-30.5,0-55.2,23.7-55.2,53s24.7,53,55.2,53s55.2-23.7,55.2-53S1449.2,47,1418.7,47z M1418.7,134
		L1418.7,134c-18.1,0-32.8-15.1-32.8-33.9s14.7-33.9,32.8-33.9s32.8,15.2,32.8,33.9S1436.8,134,1418.7,134z"/>
	<path class="st0" d="M824.1,79.8h-30.3c-2.8,0-5,2.2-5,5v30.4c0,2.8,2.2,5,5,5h30.4c2.8,0,5-2.2,5-5V84.8
		C829.1,82.1,826.9,79.8,824.1,79.8L824.1,79.8z"/>
	<path class="st0" d="M1013.9,49.3h-41.8c-2.6,0-5.2,0.6-7.6,1.7l-0.5,0.2c-2.5-1.3-5.2-2-8.1-2h-8.8v21.6h12.4v80h8.4
		c7.3,0,13.2-5.9,13.2-13.2V70.9h24.6c0,7.7,6.3,14,14,14h5.9V61.1C1025.8,54.6,1020.5,49.3,1013.9,49.3L1013.9,49.3z"/>
	<path class="st0" d="M1338.8,49.3H1317v19.6h12.3V151h9.4c6.7,0,12.2-5.4,12.2-12.1l0,0V61.5C1350.9,54.8,1345.5,49.3,1338.8,49.3z
		"/>
	<path class="st0" d="M1212.4,52.9c-8.6-5.7-27.5-7.5-38.9-4.2c-7.1,2.1-14.7,5.6-18.7,11.2c-8.1,11.3-6.2,26.9,4.3,36
		c2.5,2,11.3,7.2,19.8,11.6s16.7,9.1,18.2,10.6c6.2,6.2,1.8,15.1-8.5,16.6c-10.6,1.7-17.9-1.4-19.1-8.1c-1.2-6.2-5.5-9.5-13.2-10.1
		l-6.6-0.5v10.5c0,8.4,0.8,11.8,2.6,14.6c5.5,8.4,19,12.8,34.9,11.8c11.8-0.8,19.2-3.4,25.4-8.7c6.8-5.8,8.6-13,8.5-24.7
		c-0.2-14.8-5-19.2-29-29.1c-15.1-6.4-20.8-10.3-20.8-15.2c0-8.1,14-12.8,25-8.4c2.6,0.9,4.6,2.9,5.5,5.5c1.4,6.6,2.1,7.2,5.6,9.4
		c2.8,1.5,5.8,2.2,9,2.3h5V73.4C1221.4,61.6,1219.1,57.3,1212.4,52.9L1212.4,52.9z"/>
	<path class="st0" d="M1296.1,52.9c-8.6-5.7-27.5-7.5-38.8-4.2c-7.1,2.1-14.7,5.6-18.7,11.2c-8.1,11.3-6.2,26.9,4.3,36
		c2.5,2,11.3,7.2,19.8,11.6s16.7,9.1,18.2,10.6c6.2,6.2,1.8,15.1-8.5,16.6c-10.6,1.7-17.9-1.4-19.1-8.1c-1.2-6.2-5.5-9.5-13.2-10.1
		l-6.6-0.5v10.5c0,8.4,0.8,11.8,2.7,14.6c5.5,8.4,19,12.8,34.9,11.8c11.8-0.8,19.2-3.4,25.4-8.7c6.8-5.8,8.6-13,8.5-24.7
		c-0.2-14.8-5-19.2-29-29.1c-15.3-6.4-21-10.3-21-15.1c0-8.1,14-12.8,25-8.4c3.5,1.4,5.1,3.9,5.5,5.5c1.4,6.6,2.1,7.2,5.6,9.4
		c2.8,1.5,5.9,2.3,9,2.3h5V73.4C1305.1,61.6,1302.8,57.3,1296.1,52.9L1296.1,52.9z"/>
</g>
</svg>
